<svg xmlns="http://www.w3.org/2000/svg" style="display:none">
  <symbol id="icon-sun" viewBox="0 0 24 24">
    <path d="M12 18a6 6 0 1 1 0-12 6 6 0 0 1 0 12Zm0-2a4 4 0 1 0 0-8 4 4 0 0 0 0 8ZM11 1h2v3h-2V1Zm0 19h2v3h-2v-3ZM3.51 4.93l1.42-1.42 2.12 2.12-1.42 1.42-2.12-2.12Zm13.44 13.44 1.42-1.42 2.12 2.12-1.42 1.42-2.12-2.12ZM1 11h3v2H1v-2Zm19 0h3v2h-3v-2ZM4.93 20.49l-1.42-1.42 2.12-2.12 1.42 1.42-2.12 2.12ZM18.37 7.05l-1.42-1.42 2.12-2.12 1.42 1.42-2.12 2.12Z"/>
  </symbol>
  <symbol id="icon-moon" viewBox="0 0 24 24">
    <path d="M20.2 15.88A8.5 8.5 0 0 1 8.12 3.8a.9.9 0 0 1 1.11 1.24 6.7 6.7 0 0 0 9.73 9.73.9.9 0 0 1 1.24 1.11Z"/>
  </symbol>
</svg>
