<svg xmlns="http://www.w3.org/2000/svg" style="display:none">
  <symbol id="icon-sun" viewBox="0 0 24 24"><path d="M12 18a6 6 0 1 1 0-12 6 6 0 0 1 0 12Zm0-2a4 4 0 1 0 0-8 4 4 0 0 0 0 8ZM11 1h2v3h-2V1Zm0 19h2v3h-2v-3ZM3.51 4.93l1.42-1.42 2.12 2.12-1.42 1.42-2.12-2.12Zm13.44 13.44 1.42-1.42 2.12 2.12-1.42 1.42-2.12-2.12ZM1 11h3v2H1v-2Zm19 0h3v2h-3v-2ZM4.93 20.49l-1.42-1.42 2.12-2.12 1.42 1.42-2.12 2.12ZM18.37 7.05l-1.42-1.42 2.12-2.12 1.42 1.42-2.12 2.12Z"/></symbol>
  <symbol id="icon-moon" viewBox="0 0 24 24"><path d="M20.2 15.88A8.5 8.5 0 0 1 8.12 3.8a.9.9 0 0 1 1.11 1.24 6.7 6.7 0 0 0 9.73 9.73.9.9 0 0 1 1.24 1.11Z"/></symbol>
  <symbol id="icon-pie-chart" viewBox="0 0 24 24"><path d="M11 3a9 9 0 1 0 9 9h-9V3Zm2 0v7h7a9 9 0 0 0-7-7Z"/></symbol>
  <symbol id="icon-pie-chart-fill" viewBox="0 0 24 24"><path d="M11 3a9 9 0 1 0 9 9h-9V3Zm2 0v7h7a9 9 0 0 0-7-7Z"/></symbol>
  <symbol id="icon-shield-check" viewBox="0 0 24 24"><path d="M12 2 5 5v6c0 5.1 3.1 8.9 7 11 3.9-2.1 7-5.9 7-11V5l-7-3Zm3.9 7.4-4.6 4.7-2.2-2.2 1.2-1.2 1 1 3.4-3.5 1.2 1.2Z"/></symbol>
  <symbol id="icon-envelope" viewBox="0 0 24 24"><path d="M4 5h16a2 2 0 0 1 2 2v10a2 2 0 0 1-2 2H4a2 2 0 0 1-2-2V7a2 2 0 0 1 2-2Zm0 3.1V17h16V8.1l-8 5.2-8-5.2Zm1.1-1.3 6.9 4.5 6.9-4.5H5.1Z"/></symbol>
  <symbol id="icon-lock" viewBox="0 0 24 24"><path d="M7 10V7a5 5 0 0 1 10 0v3h1a2 2 0 0 1 2 2v8H4v-8a2 2 0 0 1 2-2h1Zm2 0h6V7a3 3 0 0 0-6 0v3Zm3 3a2 2 0 0 0-1 3.73V19h2v-2.27A2 2 0 0 0 12 13Z"/></symbol>
  <symbol id="icon-eye" viewBox="0 0 24 24"><path d="M12 5c5.2 0 8.7 4.4 10 7-1.3 2.6-4.8 7-10 7S3.3 14.6 2 12c1.3-2.6 4.8-7 10-7Zm0 2C8.4 7 5.7 9.7 4.3 12c1.4 2.3 4.1 5 7.7 5s6.3-2.7 7.7-5C18.3 9.7 15.6 7 12 7Zm0 2a3 3 0 1 1 0 6 3 3 0 0 1 0-6Z"/></symbol>
  <symbol id="icon-eye-slash" viewBox="0 0 24 24"><path d="M3.3 2 22 20.7 20.7 22l-3.1-3.1A10.7 10.7 0 0 1 12 20c-5.2 0-8.7-4.4-10-7a15 15 0 0 1 4.3-5.1L2 3.3 3.3 2Zm5.1 8.1A3.8 3.8 0 0 0 8 12a4 4 0 0 0 5.9 3.5l-1.6-1.6a2 2 0 0 1-2.2-2.2l-1.7-1.6ZM12 4c5.2 0 8.7 4.4 10 7a14.6 14.6 0 0 1-3 4.1l-1.4-1.4a12 12 0 0 0 2.1-2.7C18.3 8.7 15.6 6 12 6c-.9 0-1.8.2-2.6.5L7.9 5A10.4 10.4 0 0 1 12 4Z"/></symbol>
  <symbol id="icon-lightbulb" viewBox="0 0 24 24"><path d="M12 2a7 7 0 0 0-4 12.7V17h8v-2.3A7 7 0 0 0 12 2Zm3 17H9v2h6v-2Zm-1-4H10v-1.4l-.5-.3a5 5 0 1 1 5 0l-.5.3V15Z"/></symbol>
  <symbol id="icon-wallet2" viewBox="0 0 24 24"><path d="M4 6h15a2 2 0 0 1 2 2v2h-5a4 4 0 0 0 0 8h5v1a2 2 0 0 1-2 2H4a3 3 0 0 1-3-3V7a3 3 0 0 1 3-3h14v2H4a1 1 0 0 0 0 2Zm12 6a2 2 0 0 0 0 4h5v-4h-5Zm0 1.5h2V15h-2v-1.5Z"/></symbol>
  <symbol id="icon-plus-circle" viewBox="0 0 24 24"><path d="M12 2a10 10 0 1 0 0 20 10 10 0 0 0 0-20Zm1 5v4h4v2h-4v4h-2v-4H7v-2h4V7h2Z"/></symbol>
  <symbol id="icon-arrow-left-right" viewBox="0 0 24 24"><path d="M7 7h13v2H7v3L2 8l5-4v3Zm10 10H4v-2h13v-3l5 4-5 4v-3Z"/></symbol>
  <symbol id="icon-graph-up-arrow" viewBox="0 0 24 24"><path d="M4 18h17v2H2V4h2v14Zm3-3 4-4 3 3 5.2-6H16V6h7v7h-2V9.6L14.1 17 11 14l-3 3-1-2Z"/></symbol>
  <symbol id="icon-cart3" viewBox="0 0 24 24"><path d="M7 20a2 2 0 1 0 0-4 2 2 0 0 0 0 4Zm10 0a2 2 0 1 0 0-4 2 2 0 0 0 0 4ZM3 4h2l2.2 9.5A2 2 0 0 0 9.1 15h8.7a2 2 0 0 0 1.9-1.4L22 7H7.1l-.5-2.2A1 1 0 0 0 5.6 4H3Zm4.6 5h11.7l-1.5 4H9L7.6 9Z"/></symbol>
  <symbol id="icon-sliders" viewBox="0 0 24 24"><path d="M4 7h10V5h2v2h4v2h-4v2h-2V9H4V7Zm0 8h4v-2h2v2h10v2H10v2H8v-2H4v-2Z"/></symbol>
  <symbol id="icon-plug" viewBox="0 0 24 24"><path d="M8 2h2v5h4V2h2v5h2v4a6 6 0 0 1-5 5.9V22h-2v-5.1A6 6 0 0 1 6 11V7h2V2Zm0 7v2a4 4 0 0 0 8 0V9H8Z"/></symbol>
  <symbol id="icon-plug-fill" viewBox="0 0 24 24"><path d="M8 2h2v5h4V2h2v5h2v4a6 6 0 0 1-5 5.9V22h-2v-5.1A6 6 0 0 1 6 11V7h2V2Z"/></symbol>
  <symbol id="icon-arrow-left" viewBox="0 0 24 24"><path d="M10 5 3 12l7 7 1.4-1.4L6.8 13H21v-2H6.8l4.6-4.6L10 5Z"/></symbol>
  <symbol id="icon-check-circle-fill" viewBox="0 0 24 24"><path d="M12 2a10 10 0 1 0 0 20 10 10 0 0 0 0-20Zm-1.2 13.8-4-4 1.4-1.4 2.6 2.6 5.6-5.7 1.4 1.4-7 7.1Z"/></symbol>
  <symbol id="icon-funnel" viewBox="0 0 24 24"><path d="M3 4h18l-7 8v6l-4 2v-8L3 4Zm4.4 2 4.6 5.2V17l.5-.2v-5.6L17.6 6H7.4Z"/></symbol>
  <symbol id="icon-grid-3x3-gap" viewBox="0 0 24 24"><path d="M4 4h4v4H4V4Zm6 0h4v4h-4V4Zm6 0h4v4h-4V4ZM4 10h4v4H4v-4Zm6 0h4v4h-4v-4Zm6 0h4v4h-4v-4ZM4 16h4v4H4v-4Zm6 0h4v4h-4v-4Zm6 0h4v4h-4v-4Z"/></symbol>
  <symbol id="icon-search" viewBox="0 0 24 24"><path d="M10.5 3a7.5 7.5 0 0 1 5.9 12.1l4.2 4.3-1.4 1.4-4.3-4.2A7.5 7.5 0 1 1 10.5 3Zm0 2a5.5 5.5 0 1 0 0 11 5.5 5.5 0 0 0 0-11Z"/></symbol>
  <symbol id="icon-grid-1x2-fill" viewBox="0 0 24 24"><path d="M4 4h7v16H4V4Zm9 0h7v7h-7V4Zm0 9h7v7h-7v-7Z"/></symbol>
  <symbol id="icon-receipt-cutoff" viewBox="0 0 24 24"><path d="M5 3h14v18l-2-1.2-2 1.2-2-1.2-2 1.2-2-1.2L7 21l-2-1.2V3Zm3 4h8V5H8v2Zm0 4h8V9H8v2Zm0 4h5v-2H8v2Z"/></symbol>
  <symbol id="icon-bar-chart-line-fill" viewBox="0 0 24 24"><path d="M4 19h17v2H2V3h2v16Zm2-1V9h3v9H6Zm5 0V5h3v13h-3Zm5 0v-6h3v6h-3Z"/></symbol>
  <symbol id="icon-list" viewBox="0 0 24 24"><path d="M4 6h16v2H4V6Zm0 5h16v2H4v-2Zm0 5h16v2H4v-2Z"/></symbol>
  <symbol id="icon-cloud-arrow-down" viewBox="0 0 24 24"><path d="M8 18a6 6 0 0 1 .7-12A7 7 0 0 1 21 10.4 4.8 4.8 0 0 1 19 20h-4v-2h4a2.8 2.8 0 0 0 .4-5.6l-.9-.1-.2-.9A5 5 0 0 0 9.7 8l-.4.4-.6-.2A4 4 0 0 0 8 16h3v-4H8l4-4 4 4h-3v8h-2v-2H8Z"/></symbol>
  <symbol id="icon-currency-exchange" viewBox="0 0 24 24"><path d="M7 4h9l-2-2 1.4-1.4L20 5.2l-4.6 4.6L14 8.4 16.4 6H7a4 4 0 0 0-4 4H1a6 6 0 0 1 6-6Zm10 16H8l2 2-1.4 1.4L4 18.8l4.6-4.6L10 15.6 7.6 18H17a4 4 0 0 0 4-4h2a6 6 0 0 1-6 6Zm-6-3v-1.2a4.5 4.5 0 0 1-2.4-.9l.8-1.5a3.8 3.8 0 0 0 2.2.7c.8 0 1.2-.3 1.2-.8 0-.5-.4-.7-1.5-1-1.7-.5-2.5-1.2-2.5-2.4 0-1.2.9-2.1 2.2-2.4V6h1.5v1.4a4.3 4.3 0 0 1 2 .7l-.7 1.5a3.5 3.5 0 0 0-1.9-.6c-.7 0-1.1.3-1.1.8 0 .4.4.6 1.5 1 1.6.5 2.5 1.1 2.5 2.5 0 1.3-.9 2.2-2.3 2.5V17H11Z"/></symbol>
  <symbol id="icon-credit-card" viewBox="0 0 24 24"><path d="M3 5h18a2 2 0 0 1 2 2v10a2 2 0 0 1-2 2H3a2 2 0 0 1-2-2V7a2 2 0 0 1 2-2Zm0 4h18V7H3v2Zm0 3v5h18v-5H3Zm2 2h6v2H5v-2Z"/></symbol>
  <symbol id="icon-piggy-bank" viewBox="0 0 24 24"><path d="M6 19v-2.1A6.7 6.7 0 0 1 3 12c0-3.3 3.1-6 7-6h4.5c1.3 0 2.5.5 3.4 1.3L21 7v5l-2 .7a6.7 6.7 0 0 1-2.5 3.7V19h-3v-2h-4v2H6Zm4-11c-2.8 0-5 1.8-5 4 0 1.4.9 2.7 2.3 3.4l.7.3V17h1.5v-2h6v2H17v-1.6l.5-.4a4.7 4.7 0 0 0 1.7-2.9l.1-.6 1.7-.6V9.2l-2.2.3-.4-.5a5 5 0 0 0-3.9-2H10Zm5-5c1.2 0 2.1.5 2.8 1.4l-1.5 1.3A1.7 1.7 0 0 0 15 5h-2V3h2Zm1 7.5a1 1 0 1 0 0-2 1 1 0 0 0 0 2Z"/></symbol>
  <symbol id="icon-cash-coin" viewBox="0 0 24 24"><path d="M3 6h13a2 2 0 0 1 2 2v1a5 5 0 0 0-2 0V8H3v8h8.4a5 5 0 0 0 1.2 2H3a2 2 0 0 1-2-2V8a2 2 0 0 1 2-2Zm6.5 2.5a3.5 3.5 0 1 1 0 7 3.5 3.5 0 0 1 0-7ZM18 11a5 5 0 1 1 0 10 5 5 0 0 1 0-10Zm-.8 2v1a2 2 0 0 0 .1 4v1h1.5v-1c.8-.2 1.4-.8 1.4-1.6 0-1-.8-1.4-1.8-1.7-.6-.2-.8-.3-.8-.6s.3-.5.7-.5a2 2 0 0 1 1.2.4l.5-1.2a2.9 2.9 0 0 0-1.2-.4V13h-1.6Z"/></symbol>
  <symbol id="icon-cash-stack" viewBox="0 0 24 24"><path d="M3 6h16v10H3V6Zm2 2v6h12V8H5Zm3 2h6v2H8v-2ZM1 10h2v8h14v2H1V10Zm18 0h2v8H7v-2h12v-6Z"/></symbol>
  <symbol id="icon-arrow-down-right-circle" viewBox="0 0 24 24"><path d="M12 2a10 10 0 1 0 0 20 10 10 0 0 0 0-20Zm1 6h2v7H8v-2h3.6L7.8 9.2l1.4-1.4 3.8 3.8V8Z"/></symbol>
  <symbol id="icon-arrow-up-right-circle" viewBox="0 0 24 24"><path d="M12 2a10 10 0 1 0 0 20 10 10 0 0 0 0-20Zm-3 6h7v7h-2v-3.6l-4.8 4.8-1.4-1.4 4.8-4.8H9V8Z"/></symbol>
  <symbol id="icon-bookmark-star" viewBox="0 0 24 24"><path d="M6 3h12v19l-6-3-6 3V3Zm6 3 1.1 2.2 2.4.3-1.7 1.7.4 2.4-2.2-1.1-2.2 1.1.4-2.4-1.7-1.7 2.4-.3L12 6Z"/></symbol>
  <symbol id="icon-receipt" viewBox="0 0 24 24"><path d="M5 3h14v18l-2-1.2-2 1.2-2-1.2-2 1.2-2-1.2L7 21l-2-1.2V3Zm4 5h6V6H9v2Zm0 4h6v-2H9v2Zm0 4h4v-2H9v2Z"/></symbol>
  <symbol id="icon-credit-card-2-front" viewBox="0 0 24 24"><path d="M3 5h18a2 2 0 0 1 2 2v10a2 2 0 0 1-2 2H3a2 2 0 0 1-2-2V7a2 2 0 0 1 2-2Zm0 4h18V7H3v2Zm2 4h5v2H5v-2Zm8 0h6v2h-6v-2Z"/></symbol>
  <symbol id="icon-bank" viewBox="0 0 24 24"><path d="M12 2 2 7v2h20V7L12 2ZM4 11v7H2v2h20v-2h-2v-7h-2v7h-3v-7h-2v7h-2v-7H9v7H6v-7H4Z"/></symbol>
  <symbol id="icon-table" viewBox="0 0 24 24"><path d="M3 4h18v16H3V4Zm2 2v3h14V6H5Zm0 5v3h5v-3H5Zm7 0v3h7v-3h-7Zm-7 5v2h5v-2H5Zm7 0v2h7v-2h-7Z"/></symbol>
</svg>
