<svg xmlns="http://www.w3.org/2000/svg" aria-hidden="true" style="display:none">
    <symbol id="icon-moon" viewBox="0 0 16 16">
        <path d="M6 .278a.77.77 0 0 1 .08.858 7.2 7.2 0 0 0-.878 3.46c0 4.021 3.278 7.277 7.318 7.277q.792-.001 1.533-.16a.79.79 0 0 1 .81.316.73.73 0 0 1-.031.893A8.35 8.35 0 0 1 8.344 16C3.734 16 0 12.286 0 7.71 0 4.266 2.114 1.312 5.124.06A.75.75 0 0 1 6 .278M4.858 1.311A7.27 7.27 0 0 0 1.025 7.71c0 4.02 3.279 7.276 7.319 7.276a7.32 7.32 0 0 0 5.205-2.162q-.506.063-1.029.063c-4.61 0-8.343-3.714-8.343-8.29 0-1.167.242-2.278.681-3.286"/>
    </symbol>
    <symbol id="icon-sun" viewBox="0 0 16 16">
        <path d="M8 11a3 3 0 1 1 0-6 3 3 0 0 1 0 6m0 1a4 4 0 1 0 0-8 4 4 0 0 0 0 8M8 0a.5.5 0 0 1 .5.5v2a.5.5 0 0 1-1 0v-2A.5.5 0 0 1 8 0m0 13a.5.5 0 0 1 .5.5v2a.5.5 0 0 1-1 0v-2A.5.5 0 0 1 8 13m8-5a.5.5 0 0 1-.5.5h-2a.5.5 0 0 1 0-1h2a.5.5 0 0 1 .5.5M3 8a.5.5 0 0 1-.5.5h-2a.5.5 0 0 1 0-1h2A.5.5 0 0 1 3 8m10.657-5.657a.5.5 0 0 1 0 .707l-1.414 1.415a.5.5 0 1 1-.707-.708l1.414-1.414a.5.5 0 0 1 .707 0m-9.193 9.193a.5.5 0 0 1 0 .707L3.05 13.657a.5.5 0 0 1-.707-.707l1.414-1.414a.5.5 0 0 1 .707 0m9.193 2.121a.5.5 0 0 1-.707 0l-1.414-1.414a.5.5 0 0 1 .707-.707l1.414 1.414a.5.5 0 0 1 0 .707M4.464 4.465a.5.5 0 0 1-.707 0L2.343 3.05a.5.5 0 1 1 .707-.707l1.414 1.414a.5.5 0 0 1 0 .708"/>
    </symbol>
    <symbol id="icon-money" viewBox="0 0 16 16" fill="currentColor">
        <path d="M5 6.25a.75.75 0 1 1-1.5 0 .75.75 0 0 1 1.5 0m1.138-1.496A6.6 6.6 0 0 1 7.964 4.5c.666 0 1.303.097 1.893.273a.5.5 0 0 0 .286-.958A7.6 7.6 0 0 0 7.964 3.5c-.734 0-1.441.103-2.102.292a.5.5 0 1 0 .276.962"/>
        <path fill-rule="evenodd"
              d="M7.964 1.527c-2.977 0-5.571 1.704-6.32 4.125h-.55A1 1 0 0 0 .11 6.824l.254 1.46a1.5 1.5 0 0 0 1.478 1.243h.263c.3.513.688.978 1.145 1.382l-.729 2.477a.5.5 0 0 0 .48.641h2a.5.5 0 0 0 .471-.332l.482-1.351c.635.173 1.31.267 2.011.267.707 0 1.388-.095 2.028-.272l.543 1.372a.5.5 0 0 0 .465.316h2a.5.5 0 0 0 .478-.645l-.761-2.506C13.81 9.895 14.5 8.559 14.5 7.069q0-.218-.02-.431c.261-.11.508-.266.705-.444.315.306.815.306.815-.417 0 .223-.5.223-.461-.026a1 1 0 0 0 .09-.255.7.7 0 0 0-.202-.645.58.58 0 0 0-.707-.098.74.74 0 0 0-.375.562c-.024.243.082.48.32.654a2 2 0 0 1-.259.153c-.534-2.664-3.284-4.595-6.442-4.595M2.516 6.26c.455-2.066 2.667-3.733 5.448-3.733 3.146 0 5.536 2.114 5.536 4.542 0 1.254-.624 2.41-1.67 3.248a.5.5 0 0 0-.165.535l.66 2.175h-.985l-.59-1.487a.5.5 0 0 0-.629-.288c-.661.23-1.39.359-2.157.359a6.6 6.6 0 0 1-2.157-.359.5.5 0 0 0-.635.304l-.525 1.471h-.979l.633-2.15a.5.5 0 0 0-.17-.534 4.65 4.65 0 0 1-1.284-1.541.5.5 0 0 0-.446-.275h-.56a.5.5 0 0 1-.492-.414l-.254-1.46h.933a.5.5 0 0 0 .488-.393m12.621-.857a.6.6 0 0 1-.098.21l-.044-.025c-.146-.09-.157-.175-.152-.223a.24.24 0 0 1 .117-.173c.049-.027.08-.021.113.012a.2.2 0 0 1 .064.199"/>
    </symbol>
</svg>
